# xmcd
#
# Track frame offsets:
#	150
#	21086
#	42594
#	64057
#	79886
#	96550
#	115506
#	130414
#	151737
#	165822
#	180020
#	195875
#	210554
#	226924
#
# Disc length: 3239 seconds
#
# Revision: 1
# Processed by: cddbd v1.5.1PL0 Copyright (c) Steve Scherf et al.
# Submitted via: EasyCDDAExtractor 8.2.0.1
#
DISCID=a20ca50e
DTITLE=Taco - Taco - Puttin' On The Ritz
DYEAR=1900
DGENRE=Pop
TTITLE0=Puttin' On The Ritz
TTITLE1=La vie en rose
TTITLE2=Cheek To Cheek
TTITLE3=After Eight
TTITLE4=Somewhere Over The Rainbow
TTITLE5=Winchester Cathedral
TTITLE6=La chambre separee (A media luz)
TTITLE7=Singin' In The Rain
TTITLE8=Living In My Dreamworld
TTITLE9=You Are My Lucky Star
TTITLE10=Let's Face The Music And Dance
TTITLE11=Taco's Charleston (Medley)
TTITLE12=Superphysical Resurrection
TTITLE13=Got To Be Your Lover
EXTD=
EXTT0=
EXTT1=
EXTT2=
EXTT3=
EXTT4=
EXTT5=
EXTT6=
EXTT7=
EXTT8=
EXTT9=
EXTT10=
EXTT11=
EXTT12=
EXTT13=
PLAYORDER=
